HIERARCHY
ROOT hip
{
	OFFSET 0.000000 0.000000 0.000000 
	CHANNELS 6 Xposition Yposition Zposition Xrotation Zrotation Yrotation
	JOINT abdomen
	{
		OFFSET 0.000000 3.402643 0.000000 
		CHANNELS 3 Xrotation Zrotation Yrotation
		JOINT chest
		{
			OFFSET 0.000000 8.438565 -0.680529 
			CHANNELS 3 Xrotation Zrotation Yrotation
			JOINT neck
			{
				OFFSET 0.000000 10.207942 -0.272212 
				CHANNELS 3 Xrotation Zrotation Yrotation
				JOINT head
				{
					OFFSET 0.000000 3.130431 0.000000 
					CHANNELS 3 Xrotation Zrotation Yrotation
					End Site
					{
						OFFSET 0.000000 3.130435 0.000000 
					}
				}
			}
			JOINT lCollar
			{
				OFFSET 3.470700 6.669187 -0.816635 
				CHANNELS 3 Yrotation Zrotation Xrotation
				JOINT lShldr
				{
					OFFSET 3.198488 0.000000 0.000000 
					CHANNELS 3 Zrotation Yrotation Xrotation
					JOINT lForeArm
					{
						OFFSET 10.139888 0.000000 0.000000 
						CHANNELS 3 Yrotation Zrotation Xrotation
						JOINT lHand
						{
							OFFSET 8.370511 0.000000 0.000000 
							CHANNELS 3 Zrotation Yrotation Xrotation
							End Site
							{
								OFFSET 4.083176 0.000000 0.000000 
							}
						}
					}
				}
			}
			JOINT rCollar
			{
				OFFSET -3.470700 6.669187 -0.816635 
				CHANNELS 3 Yrotation Zrotation Xrotation
				JOINT rShldr
				{
					OFFSET -3.198488 0.000000 0.000000 
					CHANNELS 3 Zrotation Yrotation Xrotation
					JOINT rForeArm
					{
						OFFSET -10.139888 0.000000 0.000000 
						CHANNELS 3 Yrotation Zrotation Xrotation
						JOINT rHand
						{
							OFFSET -8.370511 0.000000 0.000000 
							CHANNELS 3 Zrotation Yrotation Xrotation
							End Site
							{
								OFFSET -4.083176 0.000000 0.000000 
							}
						}
					}
				}
			}
		}
	}
	JOINT lThigh
	{
		OFFSET 5.308129 -1.633274 1.361059 
		CHANNELS 3 Xrotation Zrotation Yrotation
		JOINT lShin
		{
			OFFSET -2.041588 -20.007561 0.000000 
			CHANNELS 3 Xrotation Zrotation Yrotation
			JOINT lFoot
			{
				OFFSET 0.000000 -19.190928 -1.224953 
				CHANNELS 3 Xrotation Yrotation Zrotation
				End Site
				{
					OFFSET 0.000000 -2.449906 4.627600 
				}
			}
		}
	}
	JOINT rThigh
	{
		OFFSET -5.308129 -1.633274 1.361059 
		CHANNELS 3 Xrotation Zrotation Yrotation
		JOINT rShin
		{
			OFFSET 2.041588 -20.007561 0.000000 
			CHANNELS 3 Xrotation Zrotation Yrotation
			JOINT rFoot
			{
				OFFSET 0.000000 -19.190928 -1.224953 
				CHANNELS 3 Xrotation Yrotation Zrotation
				End Site
				{
					OFFSET 0.000000 -2.449906 4.627600 
				}
			}
		}
	}
}
MOTION
Frames: 16
Frame Time: 0.033333
28.023294 43.614346 37.656490 -5.020443 -5.165761 -52.466827 -25.458981 0.000000 -0.009766 38.530224 2.777749 -1.387428 5.882975 -13.665229 26.848452 -16.708059 5.216642 22.386311 -5.838621 -14.009937 12.063376 -53.447781 -39.369530 23.775564 -67.606461 5.671092 -22.379984 15.245213 -29.632113 -4.541522 17.368294 7.336052 22.612289 63.332787 60.721146 50.953941 29.490137 -6.692894 -37.698402 -29.025793 46.601524 -14.508746 -22.792233 17.606775 6.158237 27.449598 1.537288 8.101943 6.079005 -0.592499 -13.920022 -6.513431 -17.595198 -13.095046 46.376534 2.851450 -16.218458 -23.841127 -3.653213 14.365143 
28.046890 43.516300 37.639809 -4.775683 -5.216303 -52.543354 -25.458981 0.000000 -0.009766 38.716282 2.858838 -0.985551 5.497139 -13.256652 26.563869 -16.672297 5.448641 21.990770 -5.832808 -14.376490 12.263916 -54.631268 -37.172688 24.650833 -67.726860 5.052162 -21.960257 15.709991 -30.171169 -4.969715 16.832657 7.995366 22.022707 64.659126 58.700195 53.058308 28.963835 -5.750930 -37.776241 -29.279528 47.016800 -14.785331 -22.781660 17.869625 6.738001 27.196295 2.025574 7.721825 5.997468 -0.620748 -13.708107 -7.118543 -17.807434 -13.129629 47.202744 3.025723 -16.412344 -23.921167 -3.832559 14.422831 
28.079273 43.491886 37.615681 -4.826710 -5.468937 -52.830158 -25.458981 0.000000 -0.009766 39.228222 2.937264 -0.896264 5.520552 -13.564575 26.588066 -17.183914 5.536997 21.867783 -5.879501 -14.637946 12.233220 -54.601360 -36.857243 24.081148 -68.155861 5.115098 -21.246815 15.398284 -29.815924 -4.883297 16.892494 7.838913 21.982172 65.075417 58.843548 53.259895 28.765656 -5.786421 -37.650539 -29.743114 47.132938 -15.148273 -22.630814 18.089880 6.964552 27.363771 2.137986 7.714374 5.837554 -0.597107 -13.769988 -7.285147 -17.566172 -12.482553 47.468418 3.192604 -16.350306 -23.895884 -4.023752 14.278046 
28.110928 43.471546 37.564137 -4.669750 -5.470173 -52.962234 -25.458981 0.000000 -0.009766 39.263145 3.089397 -0.819004 5.254288 -13.427487 26.686106 -16.760130 5.418378 22.104267 -5.891681 -14.876109 12.137848 -54.173317 -36.690346 23.997467 -68.453056 4.781152 -21.464909 15.821403 -30.048264 -5.126758 16.907028 7.776948 22.019161 65.095261 58.632092 52.911690 29.070082 -5.948371 -37.507236 -29.293303 47.238613 -14.814487 -22.964636 18.433466 6.748751 27.591181 1.854616 7.741909 5.893811 -0.573683 -13.698372 -7.683495 -17.383625 -11.873962 47.756699 3.668991 -16.687130 -24.028313 -4.018193 14.226249 
28.104296 43.446320 37.558525 -4.581836 -5.519523 -53.054626 -25.458981 0.000000 -0.009766 39.152306 3.273479 -0.761026 5.321861 -12.964120 26.758360 -15.996433 4.791806 22.592518 -5.931250 -15.212621 12.436381 -53.967598 -36.552456 23.803823 -68.601997 4.621423 -22.555006 14.707001 -30.551741 -4.627308 16.679668 7.782506 21.888838 65.311951 58.439987 53.219166 29.044441 -5.779532 -37.444481 -29.005365 47.447495 -14.829071 -23.286020 18.608393 6.809132 28.092894 1.942160 7.711244 5.715148 -0.638179 -13.758373 -7.811446 -17.357992 -11.538064 47.987247 4.003689 -16.729351 -24.160318 -3.930694 14.147764 
28.104296 43.446320 37.558525 -4.581836 -5.519523 -53.054626 -25.449215 0.000000 0.000000 39.152306 3.273479 -0.761026 5.321861 -12.964120 26.758360 -15.996433 4.791806 22.592518 -5.931250 -15.212621 12.436381 -53.967598 -36.552456 23.803823 -68.601997 4.621423 -22.555006 14.707001 -30.551741 -4.627308 16.679668 7.782506 21.888838 65.311951 58.439987 53.219166 29.044441 -5.779532 -37.444481 -29.005365 47.447495 -14.829071 -23.286020 18.608393 6.809132 28.092894 1.942160 7.711244 5.715148 -0.638179 -13.758373 -7.811446 -17.357992 -11.538064 47.987247 4.003689 -16.729351 -24.160318 -3.930694 14.147764 
27.878944 43.370647 37.631264 -4.807802 -5.556675 -51.428207 -25.458981 0.000000 -0.009766 39.219681 3.006129 -0.399606 5.697694 -12.066693 25.889257 -15.032310 4.444693 22.280624 -5.788747 -14.435957 12.164779 -54.261288 -39.085556 23.928625 -67.017227 4.239576 -22.652761 13.605897 -30.528906 -4.023103 16.707596 7.427417 21.838890 64.561546 59.081825 51.339241 29.625973 -6.077454 -38.978111 -28.367910 46.728065 -13.818626 -23.923529 18.122952 6.086491 28.889032 2.000896 6.692873 5.217478 -0.495958 -13.747552 -6.689203 -17.320333 -12.169396 48.052097 4.128884 -17.730276 -24.632870 -4.190715 14.930237 
27.304935 43.289280 37.977486 -5.455348 -5.551073 -47.244736 -25.458981 0.000000 -0.009766 39.389645 2.281040 0.854494 6.523640 -10.792307 23.200626 -13.800681 3.494964 20.488428 -5.212993 -12.886595 11.034139 -55.477215 -45.158958 24.877497 -63.831314 4.373597 -21.417351 12.440100 -29.693890 -3.383925 16.764992 6.777988 21.548616 62.528496 62.516483 47.748730 29.600441 -6.919453 -43.000626 -27.008123 45.600189 -12.116326 -24.954416 16.479418 4.852492 30.680012 2.239683 3.965537 3.751406 -0.152160 -13.301674 -2.949566 -17.103273 -14.206314 46.919270 4.144788 -20.320072 -24.928364 -4.761674 16.931042 
26.447317 43.220524 38.614311 -6.375419 -5.338069 -40.909115 -25.458981 0.000000 -0.009766 39.561119 1.133476 2.643892 7.576597 -9.259446 19.218420 -12.640521 2.217886 17.469740 -4.354898 -10.644249 9.119195 -56.539722 -54.438354 25.664261 -58.826355 5.483889 -19.515451 11.315486 -27.789585 -2.822282 16.846254 5.791892 20.930370 58.756435 68.875710 42.642582 28.395763 -8.143135 -49.641727 -24.907587 43.903103 -9.900787 -26.370270 13.794967 3.281296 33.312111 2.898014 -0.167202 1.381782 0.343559 -12.460716 3.017018 -16.396267 -17.484985 44.429565 3.890784 -24.183418 -24.906466 -5.556158 20.032768 
26.039907 43.195709 39.219078 -5.861564 -4.925413 -37.581104 -25.458981 0.000000 -0.009766 39.069881 0.418437 1.439916 7.114795 -8.312716 19.360399 -12.962748 2.138966 17.757561 -4.641063 -8.166897 8.338373 -55.199398 -62.289173 24.173584 -51.773659 9.650183 -23.100859 9.295870 -24.562496 -2.026279 16.970596 4.190064 19.469891 63.970718 76.984451 50.230553 23.863806 -7.640052 -57.869038 -21.788769 40.643570 -7.869183 -28.564411 12.226637 1.151440 36.046230 3.118427 -1.197934 -0.634258 0.558702 -11.953600 5.965879 -15.819604 -19.722704 42.369446 4.115325 -25.660391 -24.612890 -5.833147 21.609053 
25.925505 43.104984 39.546059 -4.625494 -4.779377 -36.420940 -25.458981 0.000000 -0.009766 38.705246 -0.123678 -1.487719 5.291454 -7.525057 21.442099 -14.613157 3.547379 19.455334 -5.730114 -6.282258 8.808123 -50.529415 -69.024078 21.479977 -42.054153 13.629884 -34.266651 5.489265 -21.737551 -0.969334 16.894058 2.423463 18.193386 63.042557 82.400475 51.809681 19.803484 -6.507543 -63.784542 -19.374146 34.942013 -5.990733 -31.271376 11.940055 -0.668297 38.843826 3.128664 -1.072389 -2.091436 0.721648 -11.844859 6.254680 -15.754964 -20.244089 42.084236 5.334267 -25.803890 -24.882847 -5.937418 21.921770 
26.037062 42.895866 39.451466 -3.097749 -5.002482 -37.151669 -25.458981 0.000000 -0.009766 38.781487 -0.587535 -5.580302 2.237483 -6.442926 24.504425 -17.431973 6.736023 21.518406 -7.520711 -5.390546 10.518305 -39.636990 -73.991005 15.433374 -29.145664 14.044962 -52.701694 -0.359000 -20.108295 0.341799 16.551344 0.660209 17.505007 77.393524 84.822609 67.319603 17.883307 -5.331319 -65.671188 -18.376753 26.395573 -4.336739 -34.433086 13.144301 -1.988113 41.599495 2.995372 -0.512124 -2.818329 0.836126 -12.191260 3.941922 -16.273163 -18.768284 44.268841 7.685356 -24.868286 -26.124443 -5.963614 21.053925 
25.917206 42.585854 39.066841 -2.207052 -5.396408 -36.833355 -25.458981 0.000000 -0.009766 39.456001 -1.684666 -9.020326 -0.752574 -4.188893 26.188305 -19.442141 9.771422 22.432154 -10.385029 -3.996989 10.826779 -12.006187 -73.917267 -9.091339 -15.983278 8.708497 -68.808525 -2.852343 -18.775782 0.861491 16.811104 -1.986678 15.937215 -75.132523 92.816002 -84.229439 15.398021 -3.981187 -66.956673 -16.460722 17.023710 -2.572009 -37.162746 14.421762 -2.380224 43.636745 3.343264 -1.844708 -2.959240 0.854030 -12.589041 2.195373 -16.196609 -18.495605 47.059036 9.419476 -24.029633 -27.900883 -6.148132 20.180201 
25.515533 42.261604 38.362434 -1.845964 -5.973483 -35.423092 -25.458981 0.000000 -0.009766 40.750519 -3.541118 -11.148512 -3.437582 -1.273306 25.974810 -21.364792 12.436029 21.713118 -13.475471 -3.146501 10.651371 2.145840 -75.451019 -22.903275 -7.066676 2.568645 -82.415932 -4.756826 -15.732938 1.004588 17.888830 -5.838770 14.243709 17.066458 92.502403 9.606573 11.441656 -1.911445 -66.408813 -12.953923 6.166112 -1.058151 -39.187660 15.604552 -2.985547 44.163025 4.045800 -3.948140 -2.169097 0.793358 -13.458186 1.298074 -15.339768 -19.345444 49.625706 10.873189 -23.729998 -30.042202 -6.315434 19.106176 
24.761942 41.994717 37.312870 -2.015785 -6.714631 -32.704140 -25.458981 0.000000 -0.009766 42.755581 -6.437040 -11.410961 -5.606487 1.837794 23.373678 -23.723246 14.395875 18.862513 -16.118202 -3.568394 10.386071 0.409819 -72.223907 -25.003922 -5.364568 0.759112 -97.595818 -8.146913 -9.134552 1.043241 20.116381 -11.191675 13.110885 63.366043 97.106644 58.936546 5.056427 1.407636 -62.886665 -7.215417 -6.707721 -0.092275 -40.178581 16.345137 -4.692337 42.501759 4.728720 -6.071114 -0.133032 0.582683 -15.162001 1.588461 -13.402036 -21.308878 51.238842 12.310536 -24.293480 -32.390568 -6.326420 17.714216 
23.771452 41.902771 36.276852 -2.836036 -7.383623 -29.420914 -25.458981 0.000000 -0.009766 43.698162 -10.445364 -7.554960 -7.137069 4.435501 18.541775 -24.374189 13.644683 14.864802 -17.043228 -8.443714 10.718954 -15.746499 -70.335121 -14.234416 -7.563824 6.411102 -112.613205 -7.898841 -4.439122 0.859742 21.771183 -17.496342 15.314599 72.431343 102.311546 73.250877 1.278702 2.635328 -45.746632 -0.548468 -16.271841 -0.400246 -38.866791 16.490906 -6.168301 38.003384 5.831330 -7.903209 2.707108 0.223585 -17.495655 3.339000 -10.682417 -24.159359 50.690937 13.042368 -25.521580 -34.128147 -6.181660 16.309364 
